<svg width="787" height="364" viewBox="0 0 787 364" fill="none" xmlns="http://www.w3.org/2000/svg">
<path d="M113.367 228.788L323.37 120.279C352.051 105.458 361.879 72.6353 345.319 46.9661L345.005 46.479C328.445 20.8098 291.77 12.0149 263.088 26.835L53.0858 135.345C24.4039 150.165 14.5768 182.988 31.1363 208.657L31.4505 209.144C48.01 234.814 84.6854 243.608 113.367 228.788Z" fill="#EA4335"/>
<path d="M673.635 135.203L463.632 243.713C434.95 258.533 425.123 291.356 441.683 317.025L441.997 317.512C458.557 343.181 495.232 351.976 523.914 337.156L733.916 228.646C762.598 213.826 772.425 181.003 755.866 155.334L755.551 154.847C738.992 129.178 702.317 120.383 673.635 135.203Z" fill="#F3BC28"/>
<path d="M51.9336 228.646L261.936 337.156C290.618 351.976 327.293 343.181 343.853 317.512L344.167 317.025C360.726 291.356 350.899 258.533 322.217 243.712L112.215 135.203C83.5332 120.383 46.8578 129.177 30.2983 154.847L29.9841 155.334C13.4246 181.003 23.2518 213.826 51.9336 228.646Z" fill="#4884F4"/>
<path d="M735.066 135.344L525.064 26.8342C496.382 12.0141 459.707 20.809 443.147 46.4782L442.833 46.9653C426.274 72.6345 436.101 105.458 464.783 120.278L674.785 228.788C703.467 243.608 740.142 234.813 756.702 209.144L757.016 208.656C773.575 182.987 763.748 150.164 735.066 135.344Z" fill="#3C9D58"/>
</svg>
