<svg width="1010" height="1447" viewBox="0 0 1010 1447" fill="none" xmlns="http://www.w3.org/2000/svg">
<path fill-rule="evenodd" clip-rule="evenodd" d="M903.009 1077.87L903.009 1147.22H933.196V1039.52H1009.89V1446.65H46.3385H12.8876V1366.69H0.649414V1316.92L21.0463 1296.52V1177.41H78.1577V1229.62L142.204 1165.58L230.727 1254.1V883.691H201.355V838.002H545.655V883.691H516.283V957.936H621.531V487.991L589.712 463.515C600.318 455.356 621.531 436.428 621.531 425.984C621.531 425.092 621.501 423.733 621.461 421.96L621.46 421.948C620.916 397.768 618.639 296.593 668.036 245.676C721.068 191.012 752.071 95.5542 753.703 58.0239C755.009 27.9997 754.247 6.89565 753.703 0.0966797H763.494V0.0967966H770.837C770.293 6.89577 769.532 27.9998 770.837 58.024C772.469 95.5544 803.472 191.012 856.504 245.676C905.901 296.593 903.624 397.768 903.08 421.948C903.04 423.727 903.009 425.09 903.009 425.984C903.009 436.428 924.222 455.356 934.828 463.515L903.009 487.991V1077.87ZM853.241 541.023C853.241 590.588 813.06 630.769 763.495 630.769C713.929 630.769 673.748 590.588 673.748 541.023C673.748 491.457 713.929 451.276 763.495 451.276C813.06 451.276 853.241 491.457 853.241 541.023ZM704.751 495.334C706.094 500.706 708.873 511.455 709.235 511.468C709.328 511.472 712.367 513.318 717.029 516.151L717.036 516.155C726.856 522.122 743.874 532.463 755.766 539.191C755.225 540.376 754.923 541.693 754.923 543.081C754.923 548.263 759.124 552.464 764.306 552.464C769.488 552.464 773.689 548.263 773.689 543.081C773.689 541.266 773.173 539.571 772.281 538.135L802.679 515.395L804.937 503.043C800.772 503.618 792.431 504.836 792.391 505.108C792.381 505.178 790.739 507.32 788.219 510.608L788.215 510.613L788.209 510.621C783.436 516.848 775.52 527.174 769.575 535.316C768.073 534.295 766.259 533.699 764.306 533.699C761.918 533.699 759.738 534.591 758.082 536.06L721.245 496.538L704.751 495.334Z" fill="#7F7F7F"/>
</svg>
