<svg width="3749" height="1538" viewBox="0 0 3749 1538" fill="none" xmlns="http://www.w3.org/2000/svg">
<path d="M654.28 364.914C654.28 455.23 627.495 527.181 573.925 580.768C513.734 644.591 434.583 676.502 336.471 676.502C242.573 676.502 163.121 643.988 98.1149 578.961C33.1086 513.934 0.605469 433.855 0.605469 338.723C0.605469 243.591 33.1086 163.511 98.1149 98.4843C163.121 33.4573 242.573 0.943848 336.471 0.943848C384.022 0.943848 428.865 9.37327 470.998 26.2321C513.132 43.091 547.742 66.874 574.828 97.5812L515.239 157.189C495.376 133.105 469.494 114.44 437.592 101.194C406.293 87.3454 372.586 80.4213 336.471 80.4213C266.048 80.4213 206.459 104.806 157.704 153.577C109.551 202.949 85.4748 264.664 85.4748 338.723C85.4748 412.781 109.551 474.497 157.704 523.869C206.459 572.639 266.048 597.024 336.471 597.024C400.876 597.024 454.446 578.961 497.181 542.835C539.917 506.709 564.595 457.036 571.216 393.815H336.471V316.144H649.766C652.775 333.003 654.28 349.26 654.28 364.914Z" fill="#7F7F7F"/>
<path d="M755.203 662.051V15.3943H952.931C1051.64 15.3943 1130.8 45.1983 1190.38 104.806C1250.58 164.414 1280.67 242.387 1280.67 338.723C1280.67 435.661 1250.58 513.935 1190.38 573.543C1130.8 632.549 1051.64 662.051 952.931 662.051H755.203ZM838.267 94.8717V582.574H952.931C1028.17 582.574 1087.46 561.199 1130.8 518.45C1174.13 475.099 1195.8 415.19 1195.8 338.723C1195.8 262.858 1174.13 203.25 1130.8 159.899C1087.46 116.547 1028.17 94.8717 952.931 94.8717H838.267Z" fill="#7F7F7F"/>
<path d="M2001.52 364.914C2001.52 455.23 1974.74 527.181 1921.17 580.768C1860.98 644.591 1781.83 676.502 1683.72 676.502C1589.82 676.502 1510.37 643.988 1445.36 578.961C1380.35 513.934 1347.85 433.855 1347.85 338.723C1347.85 243.591 1380.35 163.511 1445.36 98.4843C1510.37 33.4573 1589.82 0.943848 1683.72 0.943848C1731.27 0.943848 1776.11 9.37327 1818.24 26.2321C1860.38 43.091 1894.99 66.874 1922.07 97.5812L1862.48 157.189C1842.62 133.105 1816.74 114.44 1784.84 101.194C1753.54 87.3454 1719.83 80.4213 1683.72 80.4213C1613.29 80.4213 1553.7 104.806 1504.95 153.577C1456.8 202.949 1432.72 264.664 1432.72 338.723C1432.72 412.781 1456.8 474.497 1504.95 523.869C1553.7 572.639 1613.29 597.024 1683.72 597.024C1748.12 597.024 1801.69 578.961 1844.43 542.835C1887.16 506.709 1911.84 457.036 1918.46 393.815H1683.72V316.144H1997.01C2000.02 333.003 2001.52 349.26 2001.52 364.914Z" fill="#7F7F7F"/>
<path d="M395.158 1523.06H32.2058V876.4H115.269V1443.58H395.158V1523.06Z" fill="#7F7F7F"/>
<path d="M527.921 1387.58C527.921 1409.26 536.95 1427.32 555.007 1441.77C573.666 1456.22 595.335 1463.45 620.013 1463.45C654.924 1463.45 685.923 1450.5 713.009 1424.61C740.697 1398.72 754.54 1368.32 754.54 1333.39C728.658 1312.92 692.544 1302.69 646.197 1302.69C612.49 1302.69 584.2 1310.82 561.327 1327.07C539.057 1343.33 527.921 1363.5 527.921 1387.58ZM635.362 1066.06C696.757 1066.06 745.211 1082.62 780.724 1115.73C816.236 1148.25 833.993 1193.1 833.993 1250.3V1523.06H754.54V1461.64H750.929C716.62 1512.22 670.875 1537.51 613.693 1537.51C564.939 1537.51 524.009 1523.06 490.904 1494.16C458.401 1465.26 442.149 1429.13 442.149 1385.78C442.149 1340.02 459.303 1303.59 493.612 1276.5C528.523 1249.4 574.87 1235.85 632.654 1235.85C682.01 1235.85 722.639 1244.89 754.54 1262.95V1243.98C754.54 1215.08 743.104 1190.7 720.232 1170.83C697.359 1150.36 670.574 1140.12 639.877 1140.12C593.529 1140.12 556.813 1159.69 529.727 1198.82L456.595 1152.76C496.923 1094.96 556.512 1066.06 635.362 1066.06Z" fill="#7F7F7F"/>
<path d="M1545.45 1080.51L1402.8 1523.06H1317.93L1207.78 1183.47L1098.53 1523.06H1014.57L871.913 1080.51H958.588L1057 1414.68H1057.9L1167.15 1080.51H1252.92L1362.17 1414.68H1363.07L1460.58 1080.51H1545.45Z" fill="#7F7F7F"/>
<path d="M1682.6 1523.06H1599.54V1080.51H1678.99V1152.76H1682.6C1691.03 1129.28 1708.18 1109.41 1734.06 1093.16C1760.55 1076.3 1786.43 1067.87 1811.71 1067.87C1835.79 1067.87 1856.25 1071.48 1873.11 1078.71L1847.83 1159.09C1837.59 1154.87 1821.34 1152.76 1799.07 1152.76C1767.77 1152.76 1740.38 1165.41 1716.91 1190.7C1694.04 1215.98 1682.6 1245.49 1682.6 1279.21V1523.06Z" fill="#7F7F7F"/>
<path d="M2098.83 1537.51C2033.82 1537.51 1980.25 1515.23 1938.12 1470.67C1895.99 1426.12 1874.92 1369.82 1874.92 1301.78C1874.92 1234.35 1895.38 1178.35 1936.31 1133.8C1977.24 1088.64 2029.61 1066.06 2093.41 1066.06C2159.02 1066.06 2211.09 1087.44 2249.61 1130.19C2288.73 1172.33 2308.29 1231.64 2308.29 1308.11L2307.39 1317.14H1959.79C1960.99 1360.49 1975.44 1395.41 2003.13 1421.9C2030.81 1448.4 2063.92 1461.64 2102.44 1461.64C2155.41 1461.64 2196.94 1435.15 2227.04 1382.17L2301.07 1418.29C2281.21 1455.62 2253.52 1484.82 2218.01 1505.9C2183.1 1526.97 2143.37 1537.51 2098.83 1537.51ZM1966.11 1248.5H2219.81C2217.41 1217.79 2204.77 1192.5 2181.89 1172.63C2159.62 1152.16 2129.53 1141.93 2091.61 1141.93C2060.31 1141.93 2033.22 1151.56 2010.35 1170.83C1988.08 1190.09 1973.33 1215.98 1966.11 1248.5Z" fill="#7F7F7F"/>
<path d="M2384.25 1080.51H2463.71V1141.93H2467.32C2479.96 1120.25 2499.22 1102.19 2525.1 1087.74C2551.59 1073.29 2578.97 1066.06 2607.26 1066.06C2661.43 1066.06 2702.97 1081.72 2731.86 1113.03C2761.35 1143.73 2776.1 1187.69 2776.1 1244.89V1523.06H2693.04V1250.3C2691.23 1178.05 2654.81 1141.93 2583.79 1141.93C2550.68 1141.93 2523 1155.47 2500.72 1182.57C2478.45 1209.06 2467.32 1240.97 2467.32 1278.3V1523.06H2384.25V1080.51Z" fill="#7F7F7F"/>
<path d="M3075.84 1537.51C3010.23 1537.51 2955.76 1515.23 2912.42 1470.67C2869.69 1424.91 2848.32 1368.62 2848.32 1301.78C2848.32 1233.75 2869.69 1177.45 2912.42 1132.89C2955.76 1088.34 3010.23 1066.06 3075.84 1066.06C3120.99 1066.06 3160.41 1077.5 3194.12 1100.38C3227.83 1122.66 3253.11 1153.67 3269.96 1193.41L3194.12 1225.02C3170.64 1169.62 3129.41 1141.93 3070.43 1141.93C3032.51 1141.93 2999.7 1157.28 2972.01 1187.99C2944.93 1218.69 2931.38 1256.63 2931.38 1301.78C2931.38 1346.94 2944.93 1384.87 2972.01 1415.58C2999.7 1446.29 3032.51 1461.64 3070.43 1461.64C3131.22 1461.64 3173.95 1433.95 3198.63 1378.55L3272.67 1410.16C3256.42 1449.9 3230.83 1481.21 3195.92 1504.09C3161.62 1526.37 3121.59 1537.51 3075.84 1537.51Z" fill="#7F7F7F"/>
<path d="M3539.53 1537.51C3474.53 1537.51 3420.96 1515.23 3378.82 1470.67C3336.69 1426.12 3315.62 1369.82 3315.62 1301.78C3315.62 1234.35 3336.09 1178.35 3377.02 1133.8C3417.95 1088.64 3470.32 1066.06 3534.12 1066.06C3599.73 1066.06 3651.79 1087.44 3690.31 1130.19C3729.44 1172.33 3749 1231.64 3749 1308.11L3748.1 1317.14H3400.49C3401.7 1360.49 3416.14 1395.41 3443.83 1421.9C3471.52 1448.4 3504.62 1461.64 3543.15 1461.64C3596.11 1461.64 3637.65 1435.15 3667.74 1382.17L3741.78 1418.29C3721.91 1455.62 3694.23 1484.82 3658.71 1505.9C3623.8 1526.97 3584.08 1537.51 3539.53 1537.51ZM3406.81 1248.5H3660.52C3658.11 1217.79 3645.47 1192.5 3622.6 1172.63C3600.33 1152.16 3570.23 1141.93 3532.31 1141.93C3501.01 1141.93 3473.93 1151.56 3451.05 1170.83C3428.78 1190.09 3414.04 1215.98 3406.81 1248.5Z" fill="#7F7F7F"/>
</svg>
